mtllib materials.mtl
v -0.004929066 0.03729275 0.01149392
v 0.00122568 0.03799766 0.00364399
v 0.007700235 0.02431008 0.004752398
v -0.001531094 0.02328193 0.01653063
v -0.002519429 0.03909063 -0.005563617
v 0.002083331 0.02597737 -0.009055972
v -0.01241922 0.03947872 -0.006921172
v -0.0127649 0.02661654 -0.01108611
v -0.01857397 0.03877383 0.0009287596
v -0.02199623 0.02558839 0.0006921291
v -0.01482886 0.03768083 0.01013637
v -0.01637933 0.0239211 0.01450038
v 0.004023463 -0.1457362 0.002137184
v 0.01019645 -0.1446986 -0.005661368
v 0.006500125 -0.1426674 -0.01472843
v -0.003369212 -0.1416738 -0.01599693
v -0.009542227 -0.1427114 -0.00819838
v -0.005845875 -0.1447426 0.0008686781
v 0.01915786 0.01233971 0.003327966
v 0.006856203 0.01117018 0.01905382
v 0.01166862 0.01456386 -0.01508307
v -0.008122206 0.01561847 -0.01776826
v -0.02042386 0.01444894 -0.002042413
v -0.01293463 0.01222479 0.01636863
v 0.0008991659 -0.005135328 -0.0001256466
v -0.005252302 -0.005736828 0.00773561
v -0.002845407 -0.004021853 -0.009330988
v -0.01274142 -0.003509909 -0.01067519
v -0.01889285 -0.004111409 -0.002813935
v -0.01514831 -0.005224884 0.006391406
v -0.006052494 -0.03121173 0.000877142
v -0.01220405 -0.03181636 0.008737803
v -0.009792119 -0.02998263 -0.008315563
v -0.01968336 -0.02935818 -0.009647369
v -0.02583492 -0.02996284 -0.00178647
v -0.02209529 -0.03119195 0.007406116
v -0.01167187 -0.04372728 -1.037121E-05
v -0.01782757 -0.04441917 0.007839918
v -0.01540676 -0.04239869 -0.009191155
v -0.0252974 -0.04176188 -0.01052141
v -0.03145313 -0.04245377 -0.002671003
v -0.02771825 -0.04378235 0.006509662
v -0.0114013 -0.05825108 -0.0004141331
v -0.01755831 -0.05896896 0.007432818
v -0.0151324 -0.0568468 -0.009585142
v -0.02502057 -0.05616024 -0.01090908
v -0.03117761 -0.05687812 -0.00306201
v -0.02744651 -0.05828243 0.006108999
v -0.01163784 -0.07267073 -0.002096534
v -0.01780522 -0.07360274 0.005719781
v -0.01536033 -0.0710879 -0.01124191
v -0.0252502 -0.07043695 -0.0125711
v -0.03141761 -0.07136896 -0.004754543
v -0.02769512 -0.07295179 0.004390717
v -0.012153 -0.08640555 -0.00319314
v -0.01832047 -0.08733921 0.004622936
v -0.01587269 -0.08476445 -0.01232946
v -0.02575988 -0.08405694 -0.0136497
v -0.03192735 -0.08499061 -0.005833507
v -0.02820766 -0.0866317 0.003302813
v -0.01006579 -0.1003004 -0.003488421
v -0.01623747 -0.1013176 0.004313827
v -0.01378012 -0.09855361 -0.01260734
v -0.0236662 -0.09782396 -0.01392388
v -0.02983791 -0.09884115 -0.006121516
v -0.02612355 -0.1005879 0.002997398
v -0.0002429783 -0.1152926 -0.00509727
v -0.009503603 -0.1168736 0.006596327
v -0.005803764 -0.1124782 -0.01874125
v -0.0206252 -0.1112448 -0.02069151
v -0.02988586 -0.1128258 -0.008997917
v -0.02432504 -0.1156403 0.004646063
v 0.01235214 -0.1270104 -0.005601645
v 1.090765E-05 -0.1290184 0.0100081
v 0.004940867 -0.1232085 -0.02378452
v -0.01481161 -0.1214145 -0.02635765
v -0.02715284 -0.1234225 -0.01074803
v -0.01974156 -0.1272244 0.007434845
v -0.01602742 0.08842057 -0.02089453
v -0.03143889 0.08565494 0.01548553
v -0.04804406 0.08132312 -0.001593232
v -0.03026599 0.03627872 0.01222694
v -0.04522854 0.03197142 -0.004140139
v -0.01485452 0.03904447 -0.02415323
v -0.04444307 0.08452415 -0.01974583
v -0.04162756 0.03517246 -0.02229273
v 0.05072483 0.01335883 0.01721728
v 0.0545797 0.08942491 0.03145707
v 0.0608135 0.09289855 0.02349484
v 0.005684167 0.03666595 0.02577305
v 0.01936248 0.03945443 -0.01128483
v 0.005457401 0.08602977 0.02940178
v 0.01913571 0.08881813 -0.007656217
vn 0.7099113 0.3840151 0.5903884
vn 0.8694947 0.3867125 -0.3072986
vn 0.1415882 0.3011866 -0.942995
vn -0.7780748 0.2124483 -0.591156
vn -0.8929499 0.2245549 0.3901482
vn -0.1161715 0.3115259 0.9431097
vn -0.07427225 -0.9791508 -0.1890697
vn 0.02412833 0.9938407 0.10816
vn 0.6362491 0.5490298 0.5419903
vn 0.6958577 0.6898447 -0.1997406
vn 0.1388417 0.5537379 -0.8210344
vn -0.7883105 0.03985236 -0.6139856
vn -0.9136124 -0.2138411 0.3458097
vn -0.1282821 0.1178757 0.9847076
vn 0.5896155 -0.69648 0.4089856
vn 0.6806619 -0.6411871 -0.3543707
vn 0.1059281 -0.3683263 -0.9236423
vn -0.7855708 -0.03920712 -0.6175284
vn -0.9262161 -0.09159943 0.3656955
vn -0.1428611 -0.4777278 0.8668143
vn 0.7807544 -0.1851874 0.5967649
vn 0.8849055 -0.2515481 -0.3920024
vn 0.1294953 -0.07371231 -0.9888364
vn -0.7806727 0.1859308 -0.5966405
vn -0.8846141 0.2525559 0.3920123
vn -0.1295423 0.07291803 0.9888892
vn 0.7451486 -0.3728324 0.5529464
vn 0.8479842 -0.354213 -0.3942791
vn 0.1339445 0.009261422 -0.9909456
vn -0.7445595 0.3749563 -0.5523033
vn -0.8487232 0.3523868 0.3943253
vn -0.134024 -0.01075006 0.9909198
vn 0.7869359 -0.002592333 0.6170294
vn 0.927358 0.02771548 -0.3731475
vn 0.1348792 0.02941197 -0.9904255
vn -0.7868971 0.001588434 -0.6170822
vn -0.9273591 -0.02775936 0.3731414
vn -0.1349064 -0.03004803 0.9904026
vn 0.787387 -0.08447174 0.6106443
vn 0.9274797 0.02840542 -0.372793
vn 0.1395637 0.1122572 -0.9838294
vn -0.7873967 0.08406734 -0.6106876
vn -0.9274696 -0.02807023 0.3728435
vn -0.1395815 -0.112838 0.9837605
vn 0.7871552 -0.0783705 0.6117555
vn 0.9259019 -0.00461125 -0.3777359
vn 0.1373601 0.07324564 -0.9878094
vn -0.7871604 0.0779122 -0.6118074
vn -0.9258968 0.004687689 0.3777474
vn -0.137367 -0.07356822 0.9877844
vn 0.7742934 0.1023029 0.6245029
vn 0.9253231 0.146944 -0.3495492
vn 0.1349541 0.04033712 -0.9900305
vn -0.7739798 -0.1045189 -0.6245248
vn -0.9253683 -0.146352 0.3496778
vn -0.1350465 -0.04192139 0.9899521
vn 0.6958258 0.3904212 0.6028248
vn 0.8043367 0.5531701 -0.2168993
vn 0.1523069 0.4712389 -0.8687557
vn -0.7858982 0.1271209 -0.6051481
vn -0.9286269 -0.07137804 0.3640842
vn -0.123283 0.09253348 0.988048
vn 0.5830518 0.6061327 0.5409748
vn 0.672708 0.7296986 -0.1224903
vn 0.1555151 0.5452862 -0.8236978
vn -0.7745096 -0.0954356 -0.6253214
vn -0.9069628 -0.2846285 0.310492
vn -0.11111 0.1889419 0.9756821
vn 0.7867169 -0.09803126 0.6094804
vn 0.9118831 -0.1103808 -0.3953293
vn 0.07818818 -0.4170725 -0.9055038
vn -0.5839846 -0.6055064 -0.54067
vn -0.7407775 -0.6518179 0.1624259
vn -0.1564335 -0.4521318 0.8781261
vn -0.229778 0.9729624 -0.02337415
vn -0.7284061 -0.06233228 0.6823044
vn 0.2456534 -0.9688808 0.03040658
vn -0.06222852 0.05608334 -0.996485
vn -0.978318 -0.04538421 -0.2020747
vn 0.8089854 -0.1475191 0.5690174
vn 0.03457657 -0.9974928 -0.06174569
vn -0.3512449 -0.07010306 0.9336556
vn -0.03403935 0.9974983 0.06195572
vn 0.350596 0.07011097 -0.9338988
vn -0.4817613 -0.8424503 -0.2412126
vn -0.03662503 -0.07342836 0.9966278
vn -0.1198856 0.9923217 0.03041528
vn 0.5936567 0.06170634 -0.8023492
vn -0.07909265 0.9349136 0.3459494
vn 0.6610385 -0.02465629 -0.7499469
vn 0.08873127 -0.1876227 0.9782252
vn -0.1285128 0.9806862 0.147442
vn 0.1315858 -0.9803782 -0.146778
vn -0.7050894 -0.07660709 0.7049684
vt 0.0504455 0.1031212
vt 0.05025176 0.1041023
vt 0.04873566 0.104022
vt 0.04902883 0.102551
vt -0.1364491 0.03655378
vt -0.1374314 0.03674104
vt -0.1377055 0.03533453
vt -0.1362325 0.03505109
vt -0.01211502 -0.04798581
vt -0.01248199 -0.04891605
vt -0.01123949 -0.04945011
vt -0.01068381 -0.04805683
vt 0.0407963 0.08311125
vt 0.04029038 0.08224867
vt 0.04129541 0.08132881
vt 0.04205681 0.0826212
vt 0.141536 0.02810117
vt 0.140536 0.02808919
vt 0.1400583 0.02671823
vt 0.1415581 0.02673892
vt 0.08932675 0.002681095
vt 0.08874358 0.003493447
vt 0.08729264 0.003017061
vt 0.08817165 0.001801594
vt -0.1370613 0.03253585
vt -0.1375152 0.03342689
vt -0.1385139 0.03347931
vt -0.1390586 0.03264068
vt -0.1386046 0.03174964
vt -0.137606 0.03169722
vt 0.1406645 0.0247527
vt 0.1416645 0.02476109
vt 0.1421572 0.02563128
vt 0.1416499 0.02649308
vt 0.1406499 0.02648469
vt 0.1401572 0.02561449
vt 0.07774971 0.09591406
vt 0.07766347 0.09741157
vt 0.07613178 0.09805954
vt 0.07626256 0.09606382
vt 0.1402786 0.006863287
vt 0.1417781 0.006902906
vt 0.1418047 0.008510393
vt 0.1398054 0.008457651
vt 0.03545833 -0.05677046
vt 0.03517301 -0.05824306
vt 0.03653164 -0.05808257
vt 0.03692972 -0.0561226
vt 0.01838548 0.09415554
vt 0.01772091 0.09281079
vt 0.01884137 0.09251935
vt 0.01974555 0.0943033
vt 0.141253 0.0200882
vt 0.1397541 0.0200316
vt 0.139367 0.01886036
vt 0.1413656 0.01893594
vt 0.06798942 -0.01562897
vt 0.06717657 -0.0143683
vt 0.06568754 -0.01423848
vt 0.06678798 -0.01590852
vt -0.09756771 0.03968628
vt -0.09879182 0.04126791
vt -0.1000791 0.03906567
vt -0.09946804 0.03827405
vt -0.1396805 0.03297342
vt -0.1416804 0.03299195
vt -0.1415102 0.03057064
vt -0.1405102 0.03056127
vt -0.09215226 0.009471012
vt -0.09335678 0.007874416
vt -0.09185718 0.006416125
vt -0.09125601 0.00721525
vt 0.008174638 0.09862139
vt 0.007341354 0.09680326
vt 0.00905457 0.09606899
vt 0.009469697 0.09697875
vt 0.1415234 0.0202837
vt 0.139524 0.0202344
vt 0.1403767 0.01840077
vt 0.1413764 0.01842557
vt -0.02009281 -0.05714725
vt -0.02061682 -0.05521712
vt -0.02222031 -0.05695909
vt -0.02195968 -0.05792452
vt -0.04017932 0.08209573
vt -0.04068494 0.0829585
vt -0.04260813 0.0810626
vt -0.04210281 0.08019969
vt -0.1404884 0.02453437
vt -0.1414883 0.02454583
vt -0.1413967 0.02185806
vt -0.140397 0.02183535
vt -0.06012229 -0.01987757
vt -0.06065851 -0.02072165
vt -0.05873433 -0.02258479
vt -0.05818872 -0.02174674
vt 0.04092047 0.08282307
vt 0.04041461 0.08196045
vt 0.04231779 0.08007541
vt 0.04282338 0.08093819
vt 0.1414961 0.02411473
vt 0.1404962 0.02410329
vt 0.1404045 0.02141491
vt 0.1414043 0.0214376
vt 0.06031488 -0.02095479
vt 0.05977889 -0.02011057
vt 0.05783489 -0.02198556
vt 0.05838026 -0.02282376
vt -0.06512682 0.06536705
vt -0.06568612 0.06619599
vt -0.06659122 0.06516118
vt -0.06603896 0.06432752
vt -0.1404229 0.02311801
vt -0.1414228 0.02313492
vt -0.1415836 0.02177897
vt -0.140584 0.02175268
vt -0.04804813 -0.02911158
vt -0.04856756 -0.0299661
vt -0.04773362 -0.03104585
vt -0.04721313 -0.03019198
vt 0.06632993 0.06575243
vt 0.0657701 0.06492381
vt 0.06667257 0.06388976
vt 0.06722535 0.06472309
vt 0.1414359 0.02249106
vt 0.1404361 0.02247411
vt 0.1405973 0.02110174
vt 0.1415969 0.02112806
vt 0.04823826 -0.03018245
vt 0.04771934 -0.02932763
vt 0.04686769 -0.03041727
vt 0.04738768 -0.03127144
vt -0.01823476 0.09112419
vt -0.01866071 0.09202894
vt -0.01995243 0.09136318
vt -0.01952884 0.09045734
vt -0.1405153 0.01577339
vt -0.1415143 0.01581771
vt -0.141412 0.01437572
vt -0.1404134 0.01432377
vt -0.04463647 -0.03192487
vt -0.04514997 -0.03278296
vt -0.04385917 -0.03342266
vt -0.04334138 -0.03256715
vt 0.01834028 0.0921675
vt 0.01791479 0.09126253
vt 0.01919781 0.09060166
vt 0.01962095 0.09150773
vt 0.1415122 0.01586026
vt 0.1405132 0.01581594
vt 0.1404112 0.01436871
vt 0.1414098 0.01442066
vt 0.04493859 -0.03291492
vt 0.0444253 -0.0320567
vt 0.04312129 -0.03270392
vt 0.04363886 -0.03355956
vt -0.0309529 0.0854672
vt -0.03141119 0.086356
vt -0.032708 0.08570301
vt -0.03226905 0.08480449
vt -0.1404107 0.01440609
vt -0.1414093 0.01445875
vt -0.1414453 0.0130253
vt -0.1404478 0.01295463
vt -0.03235772 -0.03952933
vt -0.0328443 -0.04040297
vt -0.03156338 -0.04105538
vt -0.03107994 -0.04017999
vt 0.0312986 0.08641092
vt 0.03084046 0.08552204
vt 0.03214382 0.08486605
vt 0.03258263 0.08576466
vt 0.1414068 0.01450608
vt 0.1404082 0.01445347
vt 0.1404468 0.0129768
vt 0.1414443 0.01304743
vt 0.03274869 -0.04045692
vt 0.03226235 -0.03958315
vt 0.03094967 -0.04025272
vt 0.03143287 -0.04112823
vt -0.0313899 0.08515065
vt -0.03182624 0.08605044
vt -0.03303276 0.08538302
vt -0.03259657 0.08448316
vt -0.1404573 0.01309273
vt -0.1414551 0.0131587
vt -0.1414477 0.01178579
vt -0.1404503 0.01171393
vt -0.03635306 -0.03697083
vt -0.0368518 -0.03783759
vt -0.03565501 -0.03849863
vt -0.03515133 -0.03763475
vt 0.03168265 0.08611864
vt 0.03124648 0.08521875
vt 0.03244285 0.08455659
vt 0.03287886 0.08545655
vt 0.1414576 0.01312235
vt 0.1404598 0.01305639
vt 0.1404524 0.01168314
vt 0.1414499 0.01175499
vt 0.03669976 -0.03792595
vt 0.03620115 -0.03705912
vt 0.03499409 -0.0377259
vt 0.03549765 -0.03858986
vt -0.006126228 0.09396092
vt -0.006477289 0.09489727
vt -0.007800811 0.09442463
vt -0.007457466 0.09348542
vt -0.1403263 0.01335829
vt -0.1413202 0.01346796
vt -0.1411931 0.01207878
vt -0.1402003 0.01195856
vt -0.03945027 -0.03481424
vt -0.03996591 -0.03567104
vt -0.03864562 -0.03611457
vt -0.03812806 -0.03525892
vt 0.00574506 0.09513208
vt 0.005395174 0.09419528
vt 0.006715198 0.09372581
vt 0.007057369 0.09466545
vt 0.1412948 0.01368253
vt 0.1403008 0.0135731
vt 0.1401752 0.01216726
vt 0.141168 0.01228726
vt 0.03959997 -0.03590177
vt 0.03908489 -0.03504462
vt 0.03774605 -0.03549827
vt 0.03826305 -0.03635426
vt 0.0405765 0.09782192
vt 0.04041778 0.09880923
vt 0.03864365 0.09911074
vt 0.03887701 0.097629
vt 0.1327282 0.0490248
vt 0.1336973 0.04927152
vt 0.1332927 0.05094116
vt 0.1318351 0.05058711
vt 0.02928786 -0.0610739
vt 0.02900119 -0.06203193
vt 0.03052884 -0.06216602
vt 0.03097164 -0.06073287
vt 0.04088337 0.08157666
vt 0.04043537 0.08068261
vt 0.04174535 0.0801148
vt 0.04241232 0.08145835
vt 0.1412521 0.01101707
vt 0.140257 0.01091789
vt 0.1399229 0.009430072
vt 0.1414134 0.009598453
vt 0.05457313 -0.02436182
vt 0.05401436 -0.02353249
vt 0.05231252 -0.02370331
vt 0.05316196 -0.02493962
vt 0.07774699 0.08857466
vt 0.07778434 0.09007419
vt 0.07622693 0.09080661
vt 0.07618411 0.08880706
vt 0.1369547 0.03679544
vt 0.138446 0.03695679
vt 0.1381344 0.03852623
vt 0.1361457 0.0383145
vt 0.0451399 -0.06154687
vt 0.04478821 -0.06300505
vt 0.04605546 -0.06270955
vt 0.04653794 -0.06076862
vt 0.009888062 0.09422906
vt 0.009373144 0.09282021
vt 0.01046448 0.09262733
vt 0.01116028 0.09450239
vt 0.1392649 0.02795444
vt 0.1378217 0.02754566
vt 0.1375059 0.0263087
vt 0.1394289 0.02685839
vt 0.06376385 -0.01579604
vt 0.06287974 -0.01458428
vt 0.0613122 -0.01438569
vt 0.06250249 -0.01599292
vt -0.03901824 0.08169635
vt -0.03989367 0.08349457
vt -0.0413381 0.08245111
vt -0.04090347 0.08155051
vt -0.1392432 0.007905483
vt -0.141237 0.008062998
vt -0.1401278 0.006218945
vt -0.139132 0.006127045
vt -0.08563451 0.008299097
vt -0.0868985 0.006749161
vt -0.08435983 0.006543556
vt -0.08372159 0.007313379
vt -0.07862658 0.09086104
vt -0.07858504 0.08886148
vt -0.07606913 0.08960791
vt -0.07609223 0.09060764
vt -0.1366481 0.04168214
vt -0.1346727 0.04136941
vt -0.1340626 0.04361853
vt -0.1350518 0.04376505
vt -0.02709955 -0.06181592
vt -0.02773406 -0.05991924
vt -0.02961805 -0.06008029
vt -0.02929188 -0.0610256
vt 0.1376557 0.02336433
vt 0.1346725 0.02075913
vt 0.136825 0.01965087
vt 0.1129971 -0.05708707
vt 0.1096751 -0.06075648
vt 0.110971 -0.06260681
vt -0.1349053 0.02019935
vt -0.1378954 0.0227967
vt -0.1369393 0.01921658
vt -0.0356006 -0.007088708
vt -0.04013175 -0.005096966
vt -0.04099284 -0.007834917
vt -0.03639981 -0.009679484
vt 0.04862496 0.128073
vt 0.0476894 0.1264445
vt 0.05168613 0.1235246
vt 0.05262168 0.1251531
vt -0.03788384 0.09161337
vt -0.03098005 0.0951311
vt -0.03125344 0.09616478
vt -0.1428679 0.02301458
vt -0.1400085 0.02027403
vt -0.1374659 0.02315426
vt -0.1404504 0.02575705
vt 0.0628302 -0.05406537
vt 0.06715343 -0.05165503
vt 0.0652695 -0.04819061
vt 0.06099665 -0.05068917
vt 0.1399806 0.02032452
vt 0.1428396 0.02306552
vt 0.1403533 0.0258828
vt 0.1373692 0.02327954
vt -0.0670184 -0.05145859
vt -0.06269454 -0.05386778
vt -0.06095413 -0.05065271
vt -0.06522764 -0.04815529
vt -0.1304878 0.0632793
vt -0.1283901 0.05992059
vt -0.1256054 0.06424455
vt 0.03867235 -0.01843047
vt 0.04314507 -0.01631038
vt 0.04133821 -0.01172532
vt 0.1356469 0.02295193
vt 0.1386867 0.02548991
vt 0.1343622 0.02841207
vt -0.0912834 -0.06122831
vt -0.08744883 -0.06435816
vt -0.08848358 -0.05682356
vt 0.1368997 0.04194539
vt 0.1364009 0.04099961
vt 0.1386593 0.03661928
vt -0.1072142 -0.05033237
vt -0.1023626 -0.04922274
vt -0.1071054 -0.04272784
vt 0.01910537 -0.004034139
vt 0.0120898 -0.007323311
vt 0.01607007 -0.01058035
vt 0.1431493 0.02510325
vt 0.1447184 0.02613524
vt 0.1437954 0.02885323
vt -0.1435883 0.02820325
vt -0.1443832 0.02561082
vt -0.1428135 0.02457957
vt 0.1050427 -0.0674213
vt 0.1086709 -0.06405436
vt 0.1073614 -0.06201795
o group2115171753
g mesh2115171753
usemtl mat20
f 4/4/1 3/3/1 2/2/1 1/1/1
f 3/8/2 6/7/2 5/6/2 2/5/2
f 6/12/3 8/11/3 7/10/3 5/9/3
f 8/16/4 10/15/4 9/14/4 7/13/4
f 10/20/5 12/19/5 11/18/5 9/17/5
f 12/24/6 4/23/6 1/22/6 11/21/6
f 18/30/7 17/29/7 16/28/7 15/27/7 14/26/7 13/25/7
f 1/36/8 2/35/8 5/34/8 7/33/8 9/32/8 11/31/8
f 20/40/9 19/39/9 3/38/9 4/37/9
f 19/44/10 21/43/10 6/42/10 3/41/10
f 21/48/11 22/47/11 8/46/11 6/45/11
f 22/52/12 23/51/12 10/50/12 8/49/12
f 23/56/13 24/55/13 12/54/13 10/53/13
f 24/60/14 20/59/14 4/58/14 12/57/14
f 26/64/15 25/63/15 19/62/15 20/61/15
f 25/68/16 27/67/16 21/66/16 19/65/16
f 27/72/17 28/71/17 22/70/17 21/69/17
f 28/76/18 29/75/18 23/74/18 22/73/18
f 29/80/19 30/79/19 24/78/19 23/77/19
f 30/84/20 26/83/20 20/82/20 24/81/20
f 32/88/21 31/87/21 25/86/21 26/85/21
f 31/92/22 33/91/22 27/90/22 25/89/22
f 33/96/23 34/95/23 28/94/23 27/93/23
f 34/100/24 35/99/24 29/98/24 28/97/24
f 35/104/25 36/103/25 30/102/25 29/101/25
f 36/108/26 32/107/26 26/106/26 30/105/26
f 38/112/27 37/111/27 31/110/27 32/109/27
f 37/116/28 39/115/28 33/114/28 31/113/28
f 39/120/29 40/119/29 34/118/29 33/117/29
f 40/124/30 41/123/30 35/122/30 34/121/30
f 41/128/31 42/127/31 36/126/31 35/125/31
f 42/132/32 38/131/32 32/130/32 36/129/32
f 44/136/33 43/135/33 37/134/33 38/133/33
f 43/140/34 45/139/34 39/138/34 37/137/34
f 45/144/35 46/143/35 40/142/35 39/141/35
f 46/148/36 47/147/36 41/146/36 40/145/36
f 47/152/37 48/151/37 42/150/37 41/149/37
f 48/156/38 44/155/38 38/154/38 42/153/38
f 50/160/39 49/159/39 43/158/39 44/157/39
f 49/164/40 51/163/40 45/162/40 43/161/40
f 51/168/41 52/167/41 46/166/41 45/165/41
f 52/172/42 53/171/42 47/170/42 46/169/42
f 53/176/43 54/175/43 48/174/43 47/173/43
f 54/180/44 50/179/44 44/178/44 48/177/44
f 56/184/45 55/183/45 49/182/45 50/181/45
f 55/188/46 57/187/46 51/186/46 49/185/46
f 57/192/47 58/191/47 52/190/47 51/189/47
f 58/196/48 59/195/48 53/194/48 52/193/48
f 59/200/49 60/199/49 54/198/49 53/197/49
f 60/204/50 56/203/50 50/202/50 54/201/50
f 62/208/51 61/207/51 55/206/51 56/205/51
f 61/212/52 63/211/52 57/210/52 55/209/52
f 63/216/53 64/215/53 58/214/53 57/213/53
f 64/220/54 65/219/54 59/218/54 58/217/54
f 65/224/55 66/223/55 60/222/55 59/221/55
f 66/228/56 62/227/56 56/226/56 60/225/56
f 68/232/57 67/231/57 61/230/57 62/229/57
f 67/236/58 69/235/58 63/234/58 61/233/58
f 69/240/59 70/239/59 64/238/59 63/237/59
f 70/244/60 71/243/60 65/242/60 64/241/60
f 71/248/61 72/247/61 66/246/61 65/245/61
f 72/252/62 68/251/62 62/250/62 66/249/62
f 74/256/63 73/255/63 67/254/63 68/253/63
f 73/260/64 75/259/64 69/258/64 67/257/64
f 75/264/65 76/263/65 70/262/65 69/261/65
f 76/268/66 77/267/66 71/266/66 70/265/66
f 77/272/67 78/271/67 72/270/67 71/269/67
f 78/276/68 74/275/68 68/274/68 72/273/68
f 13/280/69 14/279/69 73/278/69 74/277/69
f 14/284/70 15/283/70 75/282/70 73/281/70
f 15/288/71 16/287/71 76/286/71 75/285/71
f 16/292/72 17/291/72 77/290/72 76/289/72
f 17/296/73 18/295/73 78/294/73 77/293/73
f 18/300/74 13/299/74 74/298/74 78/297/74
usemtl mat15
f 81/303/75 80/302/75 79/301/75
f 83/306/76 82/305/76 80/304/76
f 83/309/77 84/308/77 82/307/77
f 86/313/78 85/312/78 79/311/78 84/310/78
f 86/317/79 83/316/79 81/315/79 85/314/79
f 89/320/80 88/319/80 87/318/80
f 91/324/81 90/323/81 82/322/81 84/321/81
f 90/328/82 92/327/82 80/326/82 82/325/82
f 92/332/83 93/331/83 79/330/83 80/329/83
f 93/336/84 91/335/84 84/334/84 79/333/84
f 87/339/85 90/338/85 91/337/85
f 88/342/86 92/341/86 90/340/86
f 89/345/87 93/344/87 92/343/87
f 89/348/88 91/347/88 93/346/88
f 92/351/89 88/350/89 89/349/89
f 89/354/90 87/353/90 91/352/90
f 90/357/91 87/356/91 88/355/91
f 79/360/92 85/359/92 81/358/92
f 83/363/93 86/362/93 84/361/93
f 80/366/94 81/365/94 83/364/94
